<svg width="241" height="56" viewBox="0 0 241 56" fill="none" xmlns="http://www.w3.org/2000/svg">
<path d="M8.1122 55H0.304199L11.6962 1.36803H22.5762C33.4562 1.36803 34.2242 5.40003 31.8562 16.536C30.6402 22.296 29.1042 28.76 23.9202 30.552L25.0722 55H17.0722L16.6882 31.64C16.4962 31.64 15.8562 31.64 15.6002 31.64C15.2802 31.64 13.4242 31.64 13.1042 31.64L8.1122 55ZM19.3762 2.00803L13.2322 31.064H16.3042C21.1682 31 23.2162 21.272 24.2402 16.472C25.2002 11.8 27.6322 2.00803 22.4482 2.00803H19.3762Z" fill="#5665EA"/>
<path d="M48.2647 55H28.6167L40.0087 1.36803H59.6567L59.2727 3.16003L47.6887 1.94403L42.4407 26.712L51.2087 26.136L50.8247 27.928L42.3127 27.352L36.5527 54.36L48.6487 53.208L48.2647 55Z" fill="#5665EA"/>
<path d="M63.2497 55.704C56.9777 55.704 52.0497 53.72 53.9697 44.568C56.0177 34.904 58.5137 23.064 60.9457 11.8C62.8657 2.71203 68.6897 0.728027 74.8977 0.728027C81.2337 0.728027 85.6497 3.03203 83.7937 11.8L82.4497 17.88H74.7057C75.0897 16.28 76.3697 10.2 76.6897 8.60003C77.3297 5.52803 78.0337 1.36803 74.7697 1.36803C71.1217 1.36803 69.6497 7.38403 68.9457 10.712C66.3857 22.552 63.6977 35.48 61.5217 45.72C60.8177 48.984 59.6657 55.064 63.3777 55.064C66.6417 55.064 67.7297 50.84 68.3697 47.832C68.6897 46.232 69.9697 40.152 70.3537 38.552L78.0977 38.488L76.7537 44.632C74.8977 53.4 69.5217 55.704 63.2497 55.704Z" fill="#5665EA"/>
<path d="M88.6827 55.704C82.5387 55.704 77.6107 53.656 79.5307 44.568C81.5787 34.904 84.1387 23.064 86.5067 11.8C88.4267 2.77603 94.2507 0.728027 100.395 0.728027C106.475 0.728027 111.467 2.77603 109.547 11.8C107.115 23.064 104.619 34.904 102.571 44.568C100.651 53.592 94.8267 55.704 88.6827 55.704ZM87.0827 45.72C86.1867 50.008 85.2907 55.064 88.8107 55.064C92.3307 55.064 93.5467 50.52 94.5707 45.72C96.7467 35.48 99.4987 22.552 101.995 10.712C102.891 6.42403 103.787 1.36803 100.203 1.36803C96.6827 1.36803 95.4027 6.42403 94.5067 10.712C92.0107 22.552 89.2587 35.48 87.0827 45.72Z" fill="#5665EA"/>
<path d="M112.237 55H104.429L115.821 1.36803H126.701C137.581 1.36803 138.349 5.40003 135.981 16.536C134.765 22.296 133.229 28.76 128.045 30.552L129.197 55H121.197L120.813 31.64C120.621 31.64 119.981 31.64 119.725 31.64C119.405 31.64 117.549 31.64 117.229 31.64L112.237 55ZM123.501 2.00803L117.357 31.064H120.429C125.293 31 127.341 21.272 128.365 16.472C129.325 11.8 131.757 2.00803 126.573 2.00803H123.501Z" fill="#5665EA"/>
<path d="M145.365 55H132.117L143.509 1.36803H156.757C164.053 1.36803 166.549 5.97603 164.629 15.064L159.061 41.24C157.077 50.392 152.725 55 145.365 55ZM140.309 54.36H144.725C148.181 54.36 149.525 48.92 150.229 45.656C150.869 42.84 156.949 14.232 157.525 11.416C158.229 8.02403 159.445 1.94403 155.797 1.94403H151.445L140.309 54.36Z" fill="#5665EA"/>
<path d="M171.062 55.704C164.534 55.704 159.862 51.672 161.718 42.84L162.678 38.552H170.422C170.294 39.128 170.23 39.64 169.206 44.44C168.182 49.176 167.798 55.064 170.998 55.064C174.646 55.064 176.374 47.896 177.142 44.44C180.342 29.4 164.278 31.064 167.99 13.848C169.846 5.14403 175.862 0.728027 182.582 0.728027C189.11 0.728027 192.95 4.82403 191.094 13.528L190.198 17.88H182.39C182.582 16.792 183.414 12.888 183.67 11.8C184.31 8.66403 185.718 1.36803 182.39 1.36803C179.126 1.36803 177.398 6.74403 176.31 11.608C173.238 26.072 189.11 25.112 185.526 41.88C183.542 51.032 178.23 55.704 171.062 55.704Z" fill="#5665EA"/>
<path d="M214.442 48H240.952C226.495 33.5215 219.941 26.9531 221.29 23.9731C222.411 21.4986 228.981 21.4986 241 21.4986C233.68 14.1671 221.811 14.1671 214.49 21.4986C207.186 28.814 207.17 40.6648 214.442 48Z" fill="#5665EA"/>
</svg>
